<svg width="1000" height="393" viewBox="0 0 1000 393" fill="none" xmlns="http://www.w3.org/2000/svg">
<g clip-path="url(#clip0_21_40)">
<rect width="1000" height="393" fill="#2E2F31"/>
<path d="M427.012 345.727V324.633C439.609 329.32 453.848 331.664 469.727 331.664C489.004 331.664 498.643 325.219 498.643 312.328C498.643 302.953 492.725 298.266 480.889 298.266H461.201C435.479 298.266 422.617 286.547 422.617 263.109C422.617 237.328 440.928 224.438 477.549 224.438C491.611 224.438 504.941 226.488 517.539 230.59V251.684C504.941 246.996 491.611 244.652 477.549 244.652C456.455 244.652 445.908 250.805 445.908 263.109C445.908 272.484 451.006 277.172 461.201 277.172H480.889C508.252 277.172 521.934 288.891 521.934 312.328C521.934 338.695 504.531 351.879 469.727 351.879C453.848 351.879 439.609 349.828 427.012 345.727ZM578.447 258.715C606.455 258.715 620.459 273.012 620.459 301.605C620.459 305.414 620.195 309.223 619.668 313.031H558.408C558.408 326.039 567.959 332.543 587.061 332.543C596.377 332.543 605.693 331.664 615.01 329.906V348.363C606.865 350.121 596.963 351 585.303 351C551.846 351 535.117 335.268 535.117 303.803C535.117 273.744 549.561 258.715 578.447 258.715ZM558.408 296.859H597.783V296.156C597.783 283.383 591.338 276.996 578.447 276.996C566.143 276.996 559.463 283.617 558.408 296.859ZM637.949 351V258.715H655.967L658.867 272.25C667.715 263.227 677.793 258.715 689.102 258.715C710.957 258.715 721.885 270.082 721.885 292.816V351H698.594V292.816C698.594 282.621 693.525 277.523 683.389 277.523C675.83 277.523 668.447 280.541 661.24 286.576V351H637.949ZM739.551 322.26C739.551 303.92 752.91 294.75 779.629 294.75C785.898 294.75 792.168 295.336 798.438 296.508V289.564C798.438 281.303 792.49 277.172 780.596 277.172C770.518 277.172 759.326 278.637 747.021 281.566V263.109C759.326 260.18 770.518 258.715 780.596 258.715C808.018 258.715 821.729 268.852 821.729 289.125V351H808.193L799.932 342.738C791.904 348.246 783.057 351 773.389 351C750.83 351 739.551 341.42 739.551 322.26ZM798.438 312.328C792.578 311.156 786.309 310.57 779.629 310.57C768.438 310.57 762.842 314.379 762.842 321.996C762.842 330.199 767.529 334.301 776.904 334.301C784.639 334.301 791.816 331.898 798.438 327.094V312.328Z" fill="#8FC9FF"/>
<path d="M842.703 337.5L917.943 299.34V298.26L842.703 261.54V248.04L930.903 291.24V306.36L842.703 351V337.5Z" fill="#7371FF"/>
<path d="M69.4359 145.36V130.24L157.636 87.04V100.54L82.3959 137.26V138.34L157.636 176.5V190L69.4359 145.36Z" fill="#7371FF"/>
<path d="M229.968 191.44C220.608 191.44 212.808 190.84 206.568 189.64C200.328 188.32 195.228 186.22 191.268 183.34C187.428 180.46 184.488 176.62 182.448 171.82C180.528 167.02 179.208 161.02 178.488 153.82C177.768 146.62 177.408 138.04 177.408 128.08C177.408 118.12 177.768 109.54 178.488 102.34C179.208 95.14 180.528 89.14 182.448 84.34C184.488 79.54 187.428 75.7 191.268 72.82C195.228 69.94 200.328 67.9 206.568 66.7C212.808 65.38 220.608 64.72 229.968 64.72C233.568 64.72 237.288 64.84 241.128 65.08C244.968 65.32 248.688 65.68 252.288 66.16C255.888 66.64 258.948 67.24 261.468 67.96V90.46C257.748 90.1 254.328 89.8 251.208 89.56C248.208 89.2 245.568 89.02 243.288 89.02C241.008 88.9 239.088 88.84 237.528 88.84C232.008 88.84 227.448 89.08 223.848 89.56C220.368 89.92 217.608 90.82 215.568 92.26C213.528 93.7 212.028 95.86 211.068 98.74C210.108 101.5 209.448 105.28 209.088 110.08C208.848 114.76 208.728 120.76 208.728 128.08C208.728 135.28 208.848 141.28 209.088 146.08C209.448 150.88 210.108 154.72 211.068 157.6C212.028 160.48 213.528 162.64 215.568 164.08C217.608 165.4 220.368 166.3 223.848 166.78C227.448 167.14 232.008 167.32 237.528 167.32C241.248 167.32 245.448 167.2 250.128 166.96C254.808 166.6 258.828 166.18 262.188 165.7V188.74C259.548 189.22 256.368 189.64 252.648 190C248.928 190.48 245.088 190.84 241.128 191.08C237.288 191.32 233.568 191.44 229.968 191.44ZM321.644 191.44C313.484 191.44 306.704 190.96 301.304 190C295.904 189.04 291.644 187.48 288.524 185.32C285.404 183.16 283.124 180.28 281.684 176.68C280.244 173.08 279.284 168.58 278.804 163.18C278.444 157.78 278.264 151.36 278.264 143.92C278.264 136.48 278.444 130.12 278.804 124.84C279.284 119.44 280.244 114.94 281.684 111.34C283.124 107.74 285.404 104.86 288.524 102.7C291.644 100.54 295.904 99.04 301.304 98.2C306.704 97.24 313.484 96.76 321.644 96.76C329.924 96.76 336.764 97.24 342.164 98.2C347.564 99.04 351.824 100.54 354.944 102.7C358.064 104.86 360.344 107.74 361.784 111.34C363.224 114.94 364.124 119.44 364.484 124.84C364.964 130.12 365.204 136.48 365.204 143.92C365.204 151.36 364.964 157.78 364.484 163.18C364.124 168.58 363.224 173.08 361.784 176.68C360.344 180.28 358.064 183.16 354.944 185.32C351.824 187.48 347.564 189.04 342.164 190C336.764 190.96 329.924 191.44 321.644 191.44ZM321.644 169.48C325.244 169.48 328.064 169.24 330.104 168.76C332.144 168.28 333.584 167.2 334.424 165.52C335.264 163.84 335.744 161.26 335.864 157.78C336.104 154.3 336.224 149.68 336.224 143.92C336.224 138.16 336.104 133.6 335.864 130.24C335.744 126.88 335.264 124.36 334.424 122.68C333.584 121 332.144 119.92 330.104 119.44C328.064 118.96 325.244 118.72 321.644 118.72C318.044 118.72 315.224 118.96 313.184 119.44C311.264 119.92 309.884 121 309.044 122.68C308.204 124.36 307.664 126.88 307.424 130.24C307.304 133.6 307.244 138.16 307.244 143.92C307.244 149.68 307.304 154.3 307.424 157.78C307.664 161.26 308.204 163.84 309.044 165.52C309.884 167.2 311.264 168.28 313.184 168.76C315.224 169.24 318.044 169.48 321.644 169.48ZM411.508 191.44C406.228 191.44 401.668 190.72 397.828 189.28C393.988 187.84 390.868 185.38 388.468 181.9C386.068 178.3 384.268 173.44 383.068 167.32C381.988 161.2 381.448 153.52 381.448 144.28C381.448 135.16 381.988 127.54 383.068 121.42C384.148 115.18 385.888 110.32 388.288 106.84C390.688 103.24 393.748 100.66 397.468 99.1C401.308 97.54 405.928 96.76 411.328 96.76C414.928 96.76 418.288 97.06 421.408 97.66C424.648 98.26 427.588 99.34 430.228 100.9C432.868 102.46 435.148 104.8 437.068 107.92H438.508V56.26H467.488V190H439.948L439.228 179.02H437.788C435.988 182.5 433.648 185.14 430.768 186.94C428.008 188.62 424.948 189.76 421.588 190.36C418.348 191.08 414.988 191.44 411.508 191.44ZM424.468 167.68C428.188 167.68 430.948 167.26 432.748 166.42C434.668 165.46 436.048 163.78 436.888 161.38C437.608 159.22 438.028 156.76 438.148 154C438.388 151.12 438.508 147.82 438.508 144.1C438.508 140.38 438.388 137.14 438.148 134.38C438.028 131.62 437.608 129.28 436.888 127.36C436.168 124.72 434.848 122.92 432.928 121.96C431.008 121 428.188 120.52 424.468 120.52C421.228 120.52 418.648 120.76 416.728 121.24C414.808 121.72 413.368 122.74 412.408 124.3C411.568 125.74 411.028 128.02 410.788 131.14C410.548 134.26 410.428 138.58 410.428 144.1C410.428 149.62 410.548 154 410.788 157.24C411.028 160.36 411.568 162.7 412.408 164.26C413.368 165.7 414.808 166.66 416.728 167.14C418.648 167.5 421.228 167.68 424.468 167.68ZM532.641 191.44C524.001 191.44 516.861 190.9 511.221 189.82C505.581 188.74 501.081 187.06 497.721 184.78C494.481 182.38 492.021 179.32 490.341 175.6C488.781 171.88 487.761 167.44 487.281 162.28C486.921 157.12 486.741 151.12 486.741 144.28C486.741 136 487.101 128.86 487.821 122.86C488.661 116.86 490.461 111.94 493.221 108.1C495.981 104.26 500.241 101.44 506.001 99.64C511.881 97.72 519.801 96.76 529.761 96.76C537.801 96.76 544.341 97.36 549.381 98.56C554.421 99.64 558.381 101.38 561.261 103.78C564.261 106.06 566.361 109.06 567.561 112.78C568.881 116.5 569.721 121 570.081 126.28C570.441 131.44 570.621 137.44 570.621 144.28V151.3H515.361C515.361 155.38 515.541 158.68 515.901 161.2C516.261 163.6 517.221 165.4 518.781 166.6C520.341 167.8 522.741 168.64 525.981 169.12C529.221 169.48 533.721 169.66 539.481 169.66C541.761 169.66 544.461 169.6 547.581 169.48C550.701 169.36 553.941 169.18 557.301 168.94C560.781 168.7 564.021 168.46 567.021 168.22V188.38C564.381 188.98 561.141 189.52 557.301 190C553.581 190.48 549.561 190.84 545.241 191.08C540.921 191.32 536.721 191.44 532.641 191.44ZM543.441 139.24V136.36C543.441 132.04 543.201 128.62 542.721 126.1C542.361 123.58 541.641 121.72 540.561 120.52C539.601 119.2 538.221 118.36 536.421 118C534.621 117.64 532.341 117.46 529.581 117.46C526.461 117.46 523.941 117.7 522.021 118.18C520.221 118.54 518.841 119.38 517.881 120.7C516.921 122.02 516.261 123.94 515.901 126.46C515.541 128.98 515.361 132.28 515.361 136.36H546.501L543.441 139.24ZM589.996 190V98.2H617.356L618.076 113.86H619.696C621.376 109.42 623.476 105.94 625.996 103.42C628.636 100.9 631.816 99.16 635.536 98.2C639.256 97.24 643.576 96.76 648.496 96.76V123.22C640.936 123.22 634.996 124.18 630.676 126.1C626.356 128.02 623.296 131.32 621.496 136C619.696 140.56 618.796 146.98 618.796 155.26V190H589.996ZM699.464 191.44C695.624 191.44 691.424 191.32 686.864 191.08C682.424 190.84 678.044 190.54 673.724 190.18C669.524 189.82 665.744 189.4 662.384 188.92V168.58C664.304 168.7 666.464 168.88 668.864 169.12C671.384 169.36 673.964 169.54 676.604 169.66C679.244 169.78 681.764 169.9 684.164 170.02C686.684 170.02 688.964 170.02 691.004 170.02C696.644 170.02 700.664 169.84 703.064 169.48C705.584 169.12 707.144 168.4 707.744 167.32C708.464 166.12 708.824 164.56 708.824 162.64C708.824 160.72 708.584 159.34 708.104 158.5C707.744 157.66 706.904 157.06 705.584 156.7C704.384 156.34 702.284 155.98 699.284 155.62L677.864 152.92C672.704 152.2 668.804 150.7 666.164 148.42C663.524 146.02 661.724 142.84 660.764 138.88C659.924 134.8 659.504 130.06 659.504 124.66C659.504 118.3 660.464 113.32 662.384 109.72C664.304 106 666.944 103.24 670.304 101.44C673.784 99.52 677.864 98.26 682.544 97.66C687.344 97.06 692.444 96.76 697.844 96.76C701.684 96.76 705.644 96.88 709.724 97.12C713.804 97.36 717.704 97.72 721.424 98.2C725.144 98.56 728.204 98.98 730.604 99.46V119.62C727.604 119.38 724.424 119.14 721.064 118.9C717.824 118.66 714.704 118.48 711.704 118.36C708.704 118.24 706.184 118.18 704.144 118.18C699.344 118.18 695.624 118.3 692.984 118.54C690.464 118.78 688.724 119.38 687.764 120.34C686.924 121.3 686.504 122.86 686.504 125.02C686.504 126.7 686.624 128.02 686.864 128.98C687.224 129.82 688.004 130.42 689.204 130.78C690.404 131.14 692.264 131.5 694.784 131.86L716.384 134.56C720.464 135.04 723.944 136 726.824 137.44C729.704 138.88 731.864 141.46 733.304 145.18C734.864 148.9 735.644 154.48 735.644 161.92C735.644 168.64 734.744 173.98 732.944 177.94C731.264 181.78 728.804 184.72 725.564 186.76C722.324 188.68 718.484 189.94 714.044 190.54C709.724 191.14 704.864 191.44 699.464 191.44Z" fill="#E2896C"/>
</g>
<defs>
<clipPath id="clip0_21_40">
<rect width="1000" height="393" fill="white"/>
</clipPath>
</defs>
</svg>
