<svg width="1322" height="259" viewBox="0 0 1322 259" fill="none" xmlns="http://www.w3.org/2000/svg">
<g clip-path="url(#clip0_21_40)">
<rect width="1322" height="259" fill="#2E2F31"/>
<path d="M751.012 186.727V165.633C763.609 170.32 777.848 172.664 793.727 172.664C813.004 172.664 822.643 166.219 822.643 153.328C822.643 143.953 816.725 139.266 804.889 139.266H785.201C759.479 139.266 746.617 127.547 746.617 104.109C746.617 78.3281 764.928 65.4375 801.549 65.4375C815.611 65.4375 828.941 67.4883 841.539 71.5898V92.6836C828.941 87.9961 815.611 85.6523 801.549 85.6523C780.455 85.6523 769.908 91.8047 769.908 104.109C769.908 113.484 775.006 118.172 785.201 118.172H804.889C832.252 118.172 845.934 129.891 845.934 153.328C845.934 179.695 828.531 192.879 793.727 192.879C777.848 192.879 763.609 190.828 751.012 186.727ZM902.447 99.7148C930.455 99.7148 944.459 114.012 944.459 142.605C944.459 146.414 944.195 150.223 943.668 154.031H882.408C882.408 167.039 891.959 173.543 911.061 173.543C920.377 173.543 929.693 172.664 939.01 170.906V189.363C930.865 191.121 920.963 192 909.303 192C875.846 192 859.117 176.268 859.117 144.803C859.117 114.744 873.561 99.7148 902.447 99.7148ZM882.408 137.859H921.783V137.156C921.783 124.383 915.338 117.996 902.447 117.996C890.143 117.996 883.463 124.617 882.408 137.859ZM961.949 192V99.7148H979.967L982.867 113.25C991.715 104.227 1001.79 99.7148 1013.1 99.7148C1034.96 99.7148 1045.88 111.082 1045.88 133.816V192H1022.59V133.816C1022.59 123.621 1017.53 118.523 1007.39 118.523C999.83 118.523 992.447 121.541 985.24 127.576V192H961.949ZM1063.55 163.26C1063.55 144.92 1076.91 135.75 1103.63 135.75C1109.9 135.75 1116.17 136.336 1122.44 137.508V130.564C1122.44 122.303 1116.49 118.172 1104.6 118.172C1094.52 118.172 1083.33 119.637 1071.02 122.566V104.109C1083.33 101.18 1094.52 99.7148 1104.6 99.7148C1132.02 99.7148 1145.73 109.852 1145.73 130.125V192H1132.19L1123.93 183.738C1115.9 189.246 1107.06 192 1097.39 192C1074.83 192 1063.55 182.42 1063.55 163.26ZM1122.44 153.328C1116.58 152.156 1110.31 151.57 1103.63 151.57C1092.44 151.57 1086.84 155.379 1086.84 162.996C1086.84 171.199 1091.53 175.301 1100.9 175.301C1108.64 175.301 1115.82 172.898 1122.44 168.094V153.328Z" fill="#8FC9FF"/>
<path d="M1166.7 178.5L1241.94 140.34V139.26L1166.7 102.54V89.04L1254.9 132.24V147.36L1166.7 192V178.5Z" fill="#7371FF"/>
<path d="M66.4359 147.36V132.24L154.636 89.04V102.54L79.3959 139.26V140.34L154.636 178.5V192L66.4359 147.36Z" fill="#7371FF"/>
<path d="M226.968 193.44C217.608 193.44 209.808 192.84 203.568 191.64C197.328 190.32 192.228 188.22 188.268 185.34C184.428 182.46 181.488 178.62 179.448 173.82C177.528 169.02 176.208 163.02 175.488 155.82C174.768 148.62 174.408 140.04 174.408 130.08C174.408 120.12 174.768 111.54 175.488 104.34C176.208 97.14 177.528 91.14 179.448 86.34C181.488 81.54 184.428 77.7 188.268 74.82C192.228 71.94 197.328 69.9 203.568 68.7C209.808 67.38 217.608 66.72 226.968 66.72C230.568 66.72 234.288 66.84 238.128 67.08C241.968 67.32 245.688 67.68 249.288 68.16C252.888 68.64 255.948 69.24 258.468 69.96V92.46C254.748 92.1 251.328 91.8 248.208 91.56C245.208 91.2 242.568 91.02 240.288 91.02C238.008 90.9 236.088 90.84 234.528 90.84C229.008 90.84 224.448 91.08 220.848 91.56C217.368 91.92 214.608 92.82 212.568 94.26C210.528 95.7 209.028 97.86 208.068 100.74C207.108 103.5 206.448 107.28 206.088 112.08C205.848 116.76 205.728 122.76 205.728 130.08C205.728 137.28 205.848 143.28 206.088 148.08C206.448 152.88 207.108 156.72 208.068 159.6C209.028 162.48 210.528 164.64 212.568 166.08C214.608 167.4 217.368 168.3 220.848 168.78C224.448 169.14 229.008 169.32 234.528 169.32C238.248 169.32 242.448 169.2 247.128 168.96C251.808 168.6 255.828 168.18 259.188 167.7V190.74C256.548 191.22 253.368 191.64 249.648 192C245.928 192.48 242.088 192.84 238.128 193.08C234.288 193.32 230.568 193.44 226.968 193.44ZM318.644 193.44C310.484 193.44 303.704 192.96 298.304 192C292.904 191.04 288.644 189.48 285.524 187.32C282.404 185.16 280.124 182.28 278.684 178.68C277.244 175.08 276.284 170.58 275.804 165.18C275.444 159.78 275.264 153.36 275.264 145.92C275.264 138.48 275.444 132.12 275.804 126.84C276.284 121.44 277.244 116.94 278.684 113.34C280.124 109.74 282.404 106.86 285.524 104.7C288.644 102.54 292.904 101.04 298.304 100.2C303.704 99.24 310.484 98.76 318.644 98.76C326.924 98.76 333.764 99.24 339.164 100.2C344.564 101.04 348.824 102.54 351.944 104.7C355.064 106.86 357.344 109.74 358.784 113.34C360.224 116.94 361.124 121.44 361.484 126.84C361.964 132.12 362.204 138.48 362.204 145.92C362.204 153.36 361.964 159.78 361.484 165.18C361.124 170.58 360.224 175.08 358.784 178.68C357.344 182.28 355.064 185.16 351.944 187.32C348.824 189.48 344.564 191.04 339.164 192C333.764 192.96 326.924 193.44 318.644 193.44ZM318.644 171.48C322.244 171.48 325.064 171.24 327.104 170.76C329.144 170.28 330.584 169.2 331.424 167.52C332.264 165.84 332.744 163.26 332.864 159.78C333.104 156.3 333.224 151.68 333.224 145.92C333.224 140.16 333.104 135.6 332.864 132.24C332.744 128.88 332.264 126.36 331.424 124.68C330.584 123 329.144 121.92 327.104 121.44C325.064 120.96 322.244 120.72 318.644 120.72C315.044 120.72 312.224 120.96 310.184 121.44C308.264 121.92 306.884 123 306.044 124.68C305.204 126.36 304.664 128.88 304.424 132.24C304.304 135.6 304.244 140.16 304.244 145.92C304.244 151.68 304.304 156.3 304.424 159.78C304.664 163.26 305.204 165.84 306.044 167.52C306.884 169.2 308.264 170.28 310.184 170.76C312.224 171.24 315.044 171.48 318.644 171.48ZM408.508 193.44C403.228 193.44 398.668 192.72 394.828 191.28C390.988 189.84 387.868 187.38 385.468 183.9C383.068 180.3 381.268 175.44 380.068 169.32C378.988 163.2 378.448 155.52 378.448 146.28C378.448 137.16 378.988 129.54 380.068 123.42C381.148 117.18 382.888 112.32 385.288 108.84C387.688 105.24 390.748 102.66 394.468 101.1C398.308 99.54 402.928 98.76 408.328 98.76C411.928 98.76 415.288 99.06 418.408 99.66C421.648 100.26 424.588 101.34 427.228 102.9C429.868 104.46 432.148 106.8 434.068 109.92H435.508V58.26H464.488V192H436.948L436.228 181.02H434.788C432.988 184.5 430.648 187.14 427.768 188.94C425.008 190.62 421.948 191.76 418.588 192.36C415.348 193.08 411.988 193.44 408.508 193.44ZM421.468 169.68C425.188 169.68 427.948 169.26 429.748 168.42C431.668 167.46 433.048 165.78 433.888 163.38C434.608 161.22 435.028 158.76 435.148 156C435.388 153.12 435.508 149.82 435.508 146.1C435.508 142.38 435.388 139.14 435.148 136.38C435.028 133.62 434.608 131.28 433.888 129.36C433.168 126.72 431.848 124.92 429.928 123.96C428.008 123 425.188 122.52 421.468 122.52C418.228 122.52 415.648 122.76 413.728 123.24C411.808 123.72 410.368 124.74 409.408 126.3C408.568 127.74 408.028 130.02 407.788 133.14C407.548 136.26 407.428 140.58 407.428 146.1C407.428 151.62 407.548 156 407.788 159.24C408.028 162.36 408.568 164.7 409.408 166.26C410.368 167.7 411.808 168.66 413.728 169.14C415.648 169.5 418.228 169.68 421.468 169.68ZM529.641 193.44C521.001 193.44 513.861 192.9 508.221 191.82C502.581 190.74 498.081 189.06 494.721 186.78C491.481 184.38 489.021 181.32 487.341 177.6C485.781 173.88 484.761 169.44 484.281 164.28C483.921 159.12 483.741 153.12 483.741 146.28C483.741 138 484.101 130.86 484.821 124.86C485.661 118.86 487.461 113.94 490.221 110.1C492.981 106.26 497.241 103.44 503.001 101.64C508.881 99.72 516.801 98.76 526.761 98.76C534.801 98.76 541.341 99.36 546.381 100.56C551.421 101.64 555.381 103.38 558.261 105.78C561.261 108.06 563.361 111.06 564.561 114.78C565.881 118.5 566.721 123 567.081 128.28C567.441 133.44 567.621 139.44 567.621 146.28V153.3H512.361C512.361 157.38 512.541 160.68 512.901 163.2C513.261 165.6 514.221 167.4 515.781 168.6C517.341 169.8 519.741 170.64 522.981 171.12C526.221 171.48 530.721 171.66 536.481 171.66C538.761 171.66 541.461 171.6 544.581 171.48C547.701 171.36 550.941 171.18 554.301 170.94C557.781 170.7 561.021 170.46 564.021 170.22V190.38C561.381 190.98 558.141 191.52 554.301 192C550.581 192.48 546.561 192.84 542.241 193.08C537.921 193.32 533.721 193.44 529.641 193.44ZM540.441 141.24V138.36C540.441 134.04 540.201 130.62 539.721 128.1C539.361 125.58 538.641 123.72 537.561 122.52C536.601 121.2 535.221 120.36 533.421 120C531.621 119.64 529.341 119.46 526.581 119.46C523.461 119.46 520.941 119.7 519.021 120.18C517.221 120.54 515.841 121.38 514.881 122.7C513.921 124.02 513.261 125.94 512.901 128.46C512.541 130.98 512.361 134.28 512.361 138.36H543.501L540.441 141.24ZM586.996 192V100.2H614.356L615.076 115.86H616.696C618.376 111.42 620.476 107.94 622.996 105.42C625.636 102.9 628.816 101.16 632.536 100.2C636.256 99.24 640.576 98.76 645.496 98.76V125.22C637.936 125.22 631.996 126.18 627.676 128.1C623.356 130.02 620.296 133.32 618.496 138C616.696 142.56 615.796 148.98 615.796 157.26V192H586.996ZM696.464 193.44C692.624 193.44 688.424 193.32 683.864 193.08C679.424 192.84 675.044 192.54 670.724 192.18C666.524 191.82 662.744 191.4 659.384 190.92V170.58C661.304 170.7 663.464 170.88 665.864 171.12C668.384 171.36 670.964 171.54 673.604 171.66C676.244 171.78 678.764 171.9 681.164 172.02C683.684 172.02 685.964 172.02 688.004 172.02C693.644 172.02 697.664 171.84 700.064 171.48C702.584 171.12 704.144 170.4 704.744 169.32C705.464 168.12 705.824 166.56 705.824 164.64C705.824 162.72 705.584 161.34 705.104 160.5C704.744 159.66 703.904 159.06 702.584 158.7C701.384 158.34 699.284 157.98 696.284 157.62L674.864 154.92C669.704 154.2 665.804 152.7 663.164 150.42C660.524 148.02 658.724 144.84 657.764 140.88C656.924 136.8 656.504 132.06 656.504 126.66C656.504 120.3 657.464 115.32 659.384 111.72C661.304 108 663.944 105.24 667.304 103.44C670.784 101.52 674.864 100.26 679.544 99.66C684.344 99.06 689.444 98.76 694.844 98.76C698.684 98.76 702.644 98.88 706.724 99.12C710.804 99.36 714.704 99.72 718.424 100.2C722.144 100.56 725.204 100.98 727.604 101.46V121.62C724.604 121.38 721.424 121.14 718.064 120.9C714.824 120.66 711.704 120.48 708.704 120.36C705.704 120.24 703.184 120.18 701.144 120.18C696.344 120.18 692.624 120.3 689.984 120.54C687.464 120.78 685.724 121.38 684.764 122.34C683.924 123.3 683.504 124.86 683.504 127.02C683.504 128.7 683.624 130.02 683.864 130.98C684.224 131.82 685.004 132.42 686.204 132.78C687.404 133.14 689.264 133.5 691.784 133.86L713.384 136.56C717.464 137.04 720.944 138 723.824 139.44C726.704 140.88 728.864 143.46 730.304 147.18C731.864 150.9 732.644 156.48 732.644 163.92C732.644 170.64 731.744 175.98 729.944 179.94C728.264 183.78 725.804 186.72 722.564 188.76C719.324 190.68 715.484 191.94 711.044 192.54C706.724 193.14 701.864 193.44 696.464 193.44Z" fill="#E2896C"/>
</g>
<defs>
<clipPath id="clip0_21_40">
<rect width="1322" height="259" fill="white"/>
</clipPath>
</defs>
</svg>
