<svg width="1000" height="1000" viewBox="0 0 1000 1000" fill="none" xmlns="http://www.w3.org/2000/svg">
<rect width="1000" height="1000" fill="#2E2F31"/>
<path d="M427.012 593.727V572.633C439.609 577.32 453.848 579.664 469.727 579.664C489.004 579.664 498.643 573.219 498.643 560.328C498.643 550.953 492.725 546.266 480.889 546.266H461.201C435.479 546.266 422.617 534.547 422.617 511.109C422.617 485.328 440.928 472.438 477.549 472.438C491.611 472.438 504.941 474.488 517.539 478.59V499.684C504.941 494.996 491.611 492.652 477.549 492.652C456.455 492.652 445.908 498.805 445.908 511.109C445.908 520.484 451.006 525.172 461.201 525.172H480.889C508.252 525.172 521.934 536.891 521.934 560.328C521.934 586.695 504.531 599.879 469.727 599.879C453.848 599.879 439.609 597.828 427.012 593.727ZM578.447 506.715C606.455 506.715 620.459 521.012 620.459 549.605C620.459 553.414 620.195 557.223 619.668 561.031H558.408C558.408 574.039 567.959 580.543 587.061 580.543C596.377 580.543 605.693 579.664 615.01 577.906V596.363C606.865 598.121 596.963 599 585.303 599C551.846 599 535.117 583.268 535.117 551.803C535.117 521.744 549.561 506.715 578.447 506.715ZM558.408 544.859H597.783V544.156C597.783 531.383 591.338 524.996 578.447 524.996C566.143 524.996 559.463 531.617 558.408 544.859ZM637.949 599V506.715H655.967L658.867 520.25C667.715 511.227 677.793 506.715 689.102 506.715C710.957 506.715 721.885 518.082 721.885 540.816V599H698.594V540.816C698.594 530.621 693.525 525.523 683.389 525.523C675.83 525.523 668.447 528.541 661.24 534.576V599H637.949ZM739.551 570.26C739.551 551.92 752.91 542.75 779.629 542.75C785.898 542.75 792.168 543.336 798.438 544.508V537.564C798.438 529.303 792.49 525.172 780.596 525.172C770.518 525.172 759.326 526.637 747.021 529.566V511.109C759.326 508.18 770.518 506.715 780.596 506.715C808.018 506.715 821.729 516.852 821.729 537.125V599H808.193L799.932 590.738C791.904 596.246 783.057 599 773.389 599C750.83 599 739.551 589.42 739.551 570.26ZM798.438 560.328C792.578 559.156 786.309 558.57 779.629 558.57C768.438 558.57 762.842 562.379 762.842 569.996C762.842 578.199 767.529 582.301 776.904 582.301C784.639 582.301 791.816 579.898 798.438 575.094V560.328Z" fill="#8FC9FF"/>
<path d="M842.703 585.5L917.943 547.34V546.26L842.703 509.54V496.04L930.903 539.24V554.36L842.703 599V585.5Z" fill="#7371FF"/>
<path d="M69.4359 393.36V378.24L157.636 335.04V348.54L82.3959 385.26V386.34L157.636 424.5V438L69.4359 393.36Z" fill="#7371FF"/>
<path d="M229.968 439.44C220.608 439.44 212.808 438.84 206.568 437.64C200.328 436.32 195.228 434.22 191.268 431.34C187.428 428.46 184.488 424.62 182.448 419.82C180.528 415.02 179.208 409.02 178.488 401.82C177.768 394.62 177.408 386.04 177.408 376.08C177.408 366.12 177.768 357.54 178.488 350.34C179.208 343.14 180.528 337.14 182.448 332.34C184.488 327.54 187.428 323.7 191.268 320.82C195.228 317.94 200.328 315.9 206.568 314.7C212.808 313.38 220.608 312.72 229.968 312.72C233.568 312.72 237.288 312.84 241.128 313.08C244.968 313.32 248.688 313.68 252.288 314.16C255.888 314.64 258.948 315.24 261.468 315.96V338.46C257.748 338.1 254.328 337.8 251.208 337.56C248.208 337.2 245.568 337.02 243.288 337.02C241.008 336.9 239.088 336.84 237.528 336.84C232.008 336.84 227.448 337.08 223.848 337.56C220.368 337.92 217.608 338.82 215.568 340.26C213.528 341.7 212.028 343.86 211.068 346.74C210.108 349.5 209.448 353.28 209.088 358.08C208.848 362.76 208.728 368.76 208.728 376.08C208.728 383.28 208.848 389.28 209.088 394.08C209.448 398.88 210.108 402.72 211.068 405.6C212.028 408.48 213.528 410.64 215.568 412.08C217.608 413.4 220.368 414.3 223.848 414.78C227.448 415.14 232.008 415.32 237.528 415.32C241.248 415.32 245.448 415.2 250.128 414.96C254.808 414.6 258.828 414.18 262.188 413.7V436.74C259.548 437.22 256.368 437.64 252.648 438C248.928 438.48 245.088 438.84 241.128 439.08C237.288 439.32 233.568 439.44 229.968 439.44ZM321.644 439.44C313.484 439.44 306.704 438.96 301.304 438C295.904 437.04 291.644 435.48 288.524 433.32C285.404 431.16 283.124 428.28 281.684 424.68C280.244 421.08 279.284 416.58 278.804 411.18C278.444 405.78 278.264 399.36 278.264 391.92C278.264 384.48 278.444 378.12 278.804 372.84C279.284 367.44 280.244 362.94 281.684 359.34C283.124 355.74 285.404 352.86 288.524 350.7C291.644 348.54 295.904 347.04 301.304 346.2C306.704 345.24 313.484 344.76 321.644 344.76C329.924 344.76 336.764 345.24 342.164 346.2C347.564 347.04 351.824 348.54 354.944 350.7C358.064 352.86 360.344 355.74 361.784 359.34C363.224 362.94 364.124 367.44 364.484 372.84C364.964 378.12 365.204 384.48 365.204 391.92C365.204 399.36 364.964 405.78 364.484 411.18C364.124 416.58 363.224 421.08 361.784 424.68C360.344 428.28 358.064 431.16 354.944 433.32C351.824 435.48 347.564 437.04 342.164 438C336.764 438.96 329.924 439.44 321.644 439.44ZM321.644 417.48C325.244 417.48 328.064 417.24 330.104 416.76C332.144 416.28 333.584 415.2 334.424 413.52C335.264 411.84 335.744 409.26 335.864 405.78C336.104 402.3 336.224 397.68 336.224 391.92C336.224 386.16 336.104 381.6 335.864 378.24C335.744 374.88 335.264 372.36 334.424 370.68C333.584 369 332.144 367.92 330.104 367.44C328.064 366.96 325.244 366.72 321.644 366.72C318.044 366.72 315.224 366.96 313.184 367.44C311.264 367.92 309.884 369 309.044 370.68C308.204 372.36 307.664 374.88 307.424 378.24C307.304 381.6 307.244 386.16 307.244 391.92C307.244 397.68 307.304 402.3 307.424 405.78C307.664 409.26 308.204 411.84 309.044 413.52C309.884 415.2 311.264 416.28 313.184 416.76C315.224 417.24 318.044 417.48 321.644 417.48ZM411.508 439.44C406.228 439.44 401.668 438.72 397.828 437.28C393.988 435.84 390.868 433.38 388.468 429.9C386.068 426.3 384.268 421.44 383.068 415.32C381.988 409.2 381.448 401.52 381.448 392.28C381.448 383.16 381.988 375.54 383.068 369.42C384.148 363.18 385.888 358.32 388.288 354.84C390.688 351.24 393.748 348.66 397.468 347.1C401.308 345.54 405.928 344.76 411.328 344.76C414.928 344.76 418.288 345.06 421.408 345.66C424.648 346.26 427.588 347.34 430.228 348.9C432.868 350.46 435.148 352.8 437.068 355.92H438.508V304.26H467.488V438H439.948L439.228 427.02H437.788C435.988 430.5 433.648 433.14 430.768 434.94C428.008 436.62 424.948 437.76 421.588 438.36C418.348 439.08 414.988 439.44 411.508 439.44ZM424.468 415.68C428.188 415.68 430.948 415.26 432.748 414.42C434.668 413.46 436.048 411.78 436.888 409.38C437.608 407.22 438.028 404.76 438.148 402C438.388 399.12 438.508 395.82 438.508 392.1C438.508 388.38 438.388 385.14 438.148 382.38C438.028 379.62 437.608 377.28 436.888 375.36C436.168 372.72 434.848 370.92 432.928 369.96C431.008 369 428.188 368.52 424.468 368.52C421.228 368.52 418.648 368.76 416.728 369.24C414.808 369.72 413.368 370.74 412.408 372.3C411.568 373.74 411.028 376.02 410.788 379.14C410.548 382.26 410.428 386.58 410.428 392.1C410.428 397.62 410.548 402 410.788 405.24C411.028 408.36 411.568 410.7 412.408 412.26C413.368 413.7 414.808 414.66 416.728 415.14C418.648 415.5 421.228 415.68 424.468 415.68ZM532.641 439.44C524.001 439.44 516.861 438.9 511.221 437.82C505.581 436.74 501.081 435.06 497.721 432.78C494.481 430.38 492.021 427.32 490.341 423.6C488.781 419.88 487.761 415.44 487.281 410.28C486.921 405.12 486.741 399.12 486.741 392.28C486.741 384 487.101 376.86 487.821 370.86C488.661 364.86 490.461 359.94 493.221 356.1C495.981 352.26 500.241 349.44 506.001 347.64C511.881 345.72 519.801 344.76 529.761 344.76C537.801 344.76 544.341 345.36 549.381 346.56C554.421 347.64 558.381 349.38 561.261 351.78C564.261 354.06 566.361 357.06 567.561 360.78C568.881 364.5 569.721 369 570.081 374.28C570.441 379.44 570.621 385.44 570.621 392.28V399.3H515.361C515.361 403.38 515.541 406.68 515.901 409.2C516.261 411.6 517.221 413.4 518.781 414.6C520.341 415.8 522.741 416.64 525.981 417.12C529.221 417.48 533.721 417.66 539.481 417.66C541.761 417.66 544.461 417.6 547.581 417.48C550.701 417.36 553.941 417.18 557.301 416.94C560.781 416.7 564.021 416.46 567.021 416.22V436.38C564.381 436.98 561.141 437.52 557.301 438C553.581 438.48 549.561 438.84 545.241 439.08C540.921 439.32 536.721 439.44 532.641 439.44ZM543.441 387.24V384.36C543.441 380.04 543.201 376.62 542.721 374.1C542.361 371.58 541.641 369.72 540.561 368.52C539.601 367.2 538.221 366.36 536.421 366C534.621 365.64 532.341 365.46 529.581 365.46C526.461 365.46 523.941 365.7 522.021 366.18C520.221 366.54 518.841 367.38 517.881 368.7C516.921 370.02 516.261 371.94 515.901 374.46C515.541 376.98 515.361 380.28 515.361 384.36H546.501L543.441 387.24ZM589.996 438V346.2H617.356L618.076 361.86H619.696C621.376 357.42 623.476 353.94 625.996 351.42C628.636 348.9 631.816 347.16 635.536 346.2C639.256 345.24 643.576 344.76 648.496 344.76V371.22C640.936 371.22 634.996 372.18 630.676 374.1C626.356 376.02 623.296 379.32 621.496 384C619.696 388.56 618.796 394.98 618.796 403.26V438H589.996ZM699.464 439.44C695.624 439.44 691.424 439.32 686.864 439.08C682.424 438.84 678.044 438.54 673.724 438.18C669.524 437.82 665.744 437.4 662.384 436.92V416.58C664.304 416.7 666.464 416.88 668.864 417.12C671.384 417.36 673.964 417.54 676.604 417.66C679.244 417.78 681.764 417.9 684.164 418.02C686.684 418.02 688.964 418.02 691.004 418.02C696.644 418.02 700.664 417.84 703.064 417.48C705.584 417.12 707.144 416.4 707.744 415.32C708.464 414.12 708.824 412.56 708.824 410.64C708.824 408.72 708.584 407.34 708.104 406.5C707.744 405.66 706.904 405.06 705.584 404.7C704.384 404.34 702.284 403.98 699.284 403.62L677.864 400.92C672.704 400.2 668.804 398.7 666.164 396.42C663.524 394.02 661.724 390.84 660.764 386.88C659.924 382.8 659.504 378.06 659.504 372.66C659.504 366.3 660.464 361.32 662.384 357.72C664.304 354 666.944 351.24 670.304 349.44C673.784 347.52 677.864 346.26 682.544 345.66C687.344 345.06 692.444 344.76 697.844 344.76C701.684 344.76 705.644 344.88 709.724 345.12C713.804 345.36 717.704 345.72 721.424 346.2C725.144 346.56 728.204 346.98 730.604 347.46V367.62C727.604 367.38 724.424 367.14 721.064 366.9C717.824 366.66 714.704 366.48 711.704 366.36C708.704 366.24 706.184 366.18 704.144 366.18C699.344 366.18 695.624 366.3 692.984 366.54C690.464 366.78 688.724 367.38 687.764 368.34C686.924 369.3 686.504 370.86 686.504 373.02C686.504 374.7 686.624 376.02 686.864 376.98C687.224 377.82 688.004 378.42 689.204 378.78C690.404 379.14 692.264 379.5 694.784 379.86L716.384 382.56C720.464 383.04 723.944 384 726.824 385.44C729.704 386.88 731.864 389.46 733.304 393.18C734.864 396.9 735.644 402.48 735.644 409.92C735.644 416.64 734.744 421.98 732.944 425.94C731.264 429.78 728.804 432.72 725.564 434.76C722.324 436.68 718.484 437.94 714.044 438.54C709.724 439.14 704.864 439.44 699.464 439.44Z" fill="#E2896C"/>
<rect y="654" width="1000" height="113" fill="#62A1FF" fill-opacity="0.1"/>
<g opacity="0.7">
<path d="M232.681 700.951C234.937 700.951 236.951 701.112 238.723 701.435C240.51 701.742 242.012 702.226 243.228 702.885C244.458 703.544 245.396 704.379 246.04 705.39C246.685 706.4 247.007 707.602 247.007 708.993V717.958C247.007 719.35 246.685 720.551 246.04 721.562C245.396 722.572 244.458 723.407 243.228 724.066C242.012 724.726 240.51 725.216 238.723 725.539C236.951 725.846 234.937 726 232.681 726C231.421 726 230.132 725.956 228.813 725.868C227.495 725.766 226.221 725.641 224.99 725.495C223.76 725.333 222.603 725.15 221.519 724.945C220.435 724.74 219.512 724.521 218.75 724.286V692.558H224.507V702.533C225.811 702.064 227.173 701.684 228.594 701.391C230.029 701.098 231.392 700.951 232.681 700.951ZM231.099 705.038C230.337 705.038 229.641 705.089 229.011 705.192C228.381 705.294 227.795 705.426 227.253 705.587C226.726 705.749 226.235 705.932 225.781 706.137C225.327 706.327 224.902 706.518 224.507 706.708V720.551C224.902 720.683 225.356 720.814 225.869 720.946C226.382 721.063 226.924 721.173 227.495 721.276C228.081 721.378 228.674 721.459 229.275 721.518C229.89 721.576 230.498 721.605 231.099 721.605C232.007 721.605 232.893 721.598 233.757 721.583C234.622 721.554 235.427 721.488 236.174 721.386C236.921 721.283 237.603 721.129 238.218 720.924C238.848 720.719 239.382 720.434 239.822 720.067C240.276 719.687 240.627 719.225 240.876 718.683C241.125 718.126 241.25 717.445 241.25 716.64V710.18C241.25 709.022 240.979 708.107 240.437 707.433C239.895 706.745 239.163 706.225 238.24 705.873C237.317 705.521 236.24 705.294 235.01 705.192C233.779 705.089 232.476 705.038 231.099 705.038ZM258.608 715.805C258.608 716.625 258.718 717.335 258.938 717.936C259.158 718.522 259.458 719.027 259.839 719.452C260.22 719.862 260.652 720.199 261.135 720.463C261.633 720.727 262.153 720.932 262.695 721.078C263.237 721.21 263.787 721.305 264.343 721.364C264.9 721.408 265.435 721.43 265.947 721.43C267.808 721.43 269.5 721.188 271.023 720.705C272.546 720.221 273.901 719.628 275.088 718.925V700.951L280.757 701.391V727.099C280.757 728.139 280.537 729.105 280.098 729.999C279.658 730.893 279.021 731.662 278.186 732.306C277.351 732.965 276.326 733.478 275.11 733.844C273.894 734.21 272.51 734.394 270.957 734.394V730.57C271.543 730.57 272.085 730.512 272.583 730.395C273.081 730.277 273.513 730.094 273.879 729.845C274.26 729.611 274.553 729.311 274.758 728.944C274.978 728.593 275.088 728.183 275.088 727.714V723.1C274.399 723.524 273.696 723.913 272.979 724.264C272.275 724.616 271.536 724.923 270.759 725.187C269.983 725.436 269.17 725.634 268.32 725.78C267.471 725.927 266.577 726 265.64 726C263.369 726 261.428 725.817 259.817 725.451C258.206 725.07 256.88 724.513 255.84 723.781C254.814 723.034 254.06 722.111 253.577 721.012C253.093 719.914 252.852 718.632 252.852 717.167V701.391L258.608 700.951V715.805Z" fill="#547EEB"/>
<path d="M322.856 692.514C324.849 692.514 326.775 692.638 328.635 692.887C330.51 693.122 332.188 693.532 333.667 694.118C335.161 694.689 336.384 695.465 337.336 696.447C338.303 697.428 338.867 698.651 339.028 700.116L333.315 701.698C333.315 700.819 333.015 700.102 332.415 699.545C331.829 698.974 331.045 698.527 330.063 698.205C329.097 697.868 327.983 697.633 326.724 697.501C325.479 697.37 324.189 697.304 322.856 697.304C321.553 697.304 320.271 697.362 319.011 697.479C317.751 697.597 316.616 697.816 315.605 698.139C314.609 698.461 313.804 698.908 313.188 699.479C312.573 700.05 312.266 700.79 312.266 701.698V706.928H339.028V718.31C339.028 719.291 338.809 720.17 338.369 720.946C337.944 721.708 337.351 722.375 336.589 722.946C335.842 723.502 334.949 723.979 333.909 724.374C332.883 724.755 331.77 725.062 330.569 725.297C329.382 725.531 328.13 725.7 326.812 725.802C325.493 725.905 324.175 725.956 322.856 725.956C321.509 725.956 320.183 725.905 318.879 725.802C317.576 725.7 316.338 725.531 315.166 725.297C313.994 725.062 312.903 724.755 311.892 724.374C310.896 723.979 310.017 723.502 309.255 722.946C308.494 722.375 307.878 721.708 307.41 720.946C306.941 720.185 306.655 719.306 306.553 718.31L312.266 716.728C312.266 717.636 312.573 718.375 313.188 718.947C313.804 719.518 314.609 719.965 315.605 720.287C316.616 720.609 317.751 720.829 319.011 720.946C320.271 721.063 321.553 721.122 322.856 721.122C324.189 721.122 325.479 721.063 326.724 720.946C327.983 720.814 329.097 720.587 330.063 720.265C331.045 719.928 331.829 719.474 332.415 718.903C333.015 718.332 333.315 717.606 333.315 716.728V711.366H306.553V700.116C306.553 699.135 306.765 698.271 307.19 697.523C307.629 696.762 308.223 696.103 308.97 695.546C309.731 694.975 310.632 694.499 311.672 694.118C312.712 693.722 313.833 693.407 315.034 693.173C316.25 692.938 317.517 692.77 318.835 692.667C320.168 692.565 321.509 692.514 322.856 692.514ZM360.474 700.951C362.729 700.951 364.663 701.142 366.274 701.522C367.886 701.889 369.204 702.445 370.229 703.192C371.27 703.925 372.024 704.84 372.493 705.939C372.976 707.038 373.218 708.319 373.218 709.784V726H367.461V711.146C367.461 710.326 367.351 709.623 367.131 709.037C366.912 708.437 366.611 707.931 366.23 707.521C365.864 707.096 365.432 706.752 364.934 706.488C364.436 706.225 363.916 706.027 363.374 705.895C362.847 705.749 362.305 705.653 361.748 705.609C361.191 705.551 360.664 705.521 360.166 705.521C359.229 705.521 358.335 705.587 357.485 705.719C356.636 705.851 355.83 706.034 355.068 706.269C354.307 706.488 353.589 706.752 352.915 707.06C352.241 707.367 351.611 707.689 351.025 708.026V726H345.269V692.558H351.025V703.852C351.699 703.441 352.388 703.061 353.091 702.709C353.794 702.357 354.526 702.05 355.288 701.786C356.064 701.522 356.877 701.317 357.727 701.171C358.591 701.024 359.507 700.951 360.474 700.951ZM404.814 717.035C404.448 716.713 403.994 716.398 403.452 716.09C402.91 715.783 402.244 715.512 401.453 715.277C400.662 715.028 399.717 714.831 398.618 714.684C397.534 714.523 396.26 714.442 394.795 714.442C393.491 714.442 392.253 714.472 391.082 714.53C389.924 714.574 388.906 714.721 388.027 714.97C387.148 715.204 386.453 715.585 385.94 716.112C385.427 716.64 385.171 717.372 385.171 718.31V721.122C386.46 721.327 387.881 721.496 389.434 721.627C390.986 721.759 392.715 721.825 394.619 721.825C396.143 721.825 397.761 721.774 399.475 721.671C401.204 721.554 402.983 721.327 404.814 720.99V717.035ZM394.927 700.951C395.659 700.951 396.545 700.988 397.585 701.061C398.625 701.134 399.709 701.266 400.837 701.457C401.965 701.632 403.079 701.881 404.177 702.204C405.291 702.511 406.287 702.921 407.166 703.434C408.059 703.932 408.777 704.533 409.319 705.236C409.861 705.939 410.132 706.767 410.132 707.719V724.726C408.901 724.975 407.51 725.187 405.957 725.363C404.624 725.524 403.035 725.67 401.189 725.802C399.343 725.934 397.285 726 395.015 726C392.759 726 390.356 725.905 387.808 725.714C385.273 725.524 382.622 725.194 379.854 724.726V716.815C379.854 715.966 380.051 715.226 380.447 714.596C380.857 713.952 381.414 713.402 382.117 712.948C382.82 712.494 383.647 712.121 384.6 711.828C385.552 711.535 386.577 711.3 387.676 711.125C388.774 710.949 389.917 710.832 391.104 710.773C392.29 710.7 393.477 710.663 394.663 710.663C396.465 710.663 397.996 710.78 399.255 711.015C400.53 711.234 401.584 711.476 402.419 711.74C403.386 712.062 404.185 712.421 404.814 712.816V709.257C404.814 708.656 404.668 708.144 404.375 707.719C404.082 707.279 403.687 706.913 403.188 706.62C402.69 706.312 402.119 706.071 401.475 705.895C400.83 705.705 400.156 705.558 399.453 705.456C398.75 705.353 398.032 705.287 397.3 705.258C396.582 705.229 395.908 705.214 395.278 705.214C394.619 705.214 393.916 705.236 393.169 705.28C392.422 705.309 391.675 705.375 390.928 705.478C390.195 705.58 389.485 705.727 388.796 705.917C388.123 706.093 387.522 706.334 386.995 706.642C386.467 706.95 386.042 707.323 385.72 707.763C385.413 708.188 385.259 708.7 385.259 709.301L379.81 707.895C379.81 706.913 380.051 706.063 380.535 705.346C381.018 704.613 381.655 703.991 382.446 703.478C383.252 702.965 384.175 702.548 385.215 702.226C386.255 701.889 387.332 701.632 388.445 701.457C389.573 701.266 390.693 701.134 391.807 701.061C392.92 700.988 393.96 700.951 394.927 700.951ZM439.18 700.775C441.436 700.775 443.472 700.966 445.288 701.347C447.104 701.713 448.65 702.27 449.924 703.017C451.199 703.764 452.18 704.694 452.869 705.807C453.557 706.906 453.901 708.188 453.901 709.652V726H448.145V710.971C448.145 709.755 447.881 708.766 447.354 708.004C446.826 707.228 446.13 706.62 445.266 706.181C444.402 705.741 443.42 705.441 442.322 705.28C441.223 705.119 440.103 705.038 438.96 705.038V726H433.643V705.038C432.69 705.038 431.775 705.119 430.896 705.28C430.032 705.426 429.211 705.631 428.435 705.895C427.659 706.159 426.926 706.459 426.238 706.796C425.549 707.133 424.912 707.484 424.326 707.851V726H418.569V707.851C418.511 707.382 418.372 706.986 418.152 706.664C417.947 706.342 417.72 706.078 417.471 705.873C417.192 705.624 416.885 705.419 416.548 705.258L419.009 700.951C419.551 701.142 420.085 701.391 420.613 701.698C421.067 701.962 421.543 702.306 422.041 702.731C422.539 703.156 422.979 703.676 423.359 704.291C424.546 703.573 425.688 702.987 426.787 702.533C427.886 702.064 429.043 701.706 430.259 701.457C431.475 701.193 432.8 701.017 434.236 700.929C435.671 700.827 437.319 700.775 439.18 700.775ZM476.621 700.951C477.368 700.951 478.269 700.988 479.324 701.061C480.378 701.134 481.47 701.266 482.598 701.457C483.74 701.632 484.868 701.889 485.981 702.226C487.095 702.548 488.091 702.965 488.97 703.478C489.863 703.991 490.581 704.613 491.123 705.346C491.68 706.063 491.958 706.913 491.958 707.895V715.321H466.777V720.946C468.55 721.195 470.256 721.371 471.897 721.474C473.538 721.562 475.112 721.605 476.621 721.605C478.921 721.605 481.001 721.518 482.861 721.342C484.736 721.166 486.355 720.968 487.717 720.749C489.285 720.5 490.698 720.214 491.958 719.892V724.77C489.175 725.209 486.487 725.524 483.894 725.714C481.316 725.905 478.892 726 476.621 726C474.336 726 472.263 725.941 470.403 725.824C468.542 725.692 466.946 725.546 465.613 725.385C464.06 725.209 462.661 725.004 461.416 724.77V707.895C461.416 706.913 461.658 706.063 462.141 705.346C462.625 704.613 463.269 703.991 464.075 703.478C464.88 702.965 465.803 702.548 466.843 702.226C467.898 701.889 468.989 701.632 470.117 701.457C471.245 701.266 472.366 701.134 473.479 701.061C474.607 700.988 475.654 700.951 476.621 700.951ZM466.777 711.806H486.509V709.257C486.509 708.656 486.362 708.144 486.069 707.719C485.776 707.279 485.381 706.913 484.883 706.62C484.399 706.327 483.828 706.093 483.169 705.917C482.524 705.727 481.851 705.587 481.147 705.5C480.444 705.397 479.734 705.331 479.016 705.302C478.313 705.272 477.646 705.258 477.017 705.258C476.357 705.258 475.647 705.272 474.885 705.302C474.138 705.331 473.384 705.397 472.622 705.5C471.86 705.602 471.128 705.749 470.425 705.939C469.722 706.115 469.099 706.356 468.557 706.664C468.015 706.957 467.583 707.323 467.261 707.763C466.938 708.188 466.777 708.7 466.777 709.301V711.806ZM513.799 700.951C514.546 700.951 515.447 700.988 516.501 701.061C517.556 701.134 518.647 701.266 519.775 701.457C520.918 701.632 522.046 701.889 523.159 702.226C524.272 702.548 525.269 702.965 526.147 703.478C527.041 703.991 527.759 704.613 528.301 705.346C528.857 706.063 529.136 706.913 529.136 707.895V715.321H503.955V720.946C505.728 721.195 507.434 721.371 509.075 721.474C510.715 721.562 512.29 721.605 513.799 721.605C516.099 721.605 518.179 721.518 520.039 721.342C521.914 721.166 523.533 720.968 524.895 720.749C526.462 720.5 527.876 720.214 529.136 719.892V724.77C526.353 725.209 523.665 725.524 521.072 725.714C518.494 725.905 516.069 726 513.799 726C511.514 726 509.441 725.941 507.581 725.824C505.72 725.692 504.124 725.546 502.791 725.385C501.238 725.209 499.839 725.004 498.594 724.77V707.895C498.594 706.913 498.835 706.063 499.319 705.346C499.802 704.613 500.447 703.991 501.252 703.478C502.058 702.965 502.981 702.548 504.021 702.226C505.076 701.889 506.167 701.632 507.295 701.457C508.423 701.266 509.543 701.134 510.657 701.061C511.785 700.988 512.832 700.951 513.799 700.951ZM503.955 711.806H523.687V709.257C523.687 708.656 523.54 708.144 523.247 707.719C522.954 707.279 522.559 706.913 522.061 706.62C521.577 706.327 521.006 706.093 520.347 705.917C519.702 705.727 519.028 705.587 518.325 705.5C517.622 705.397 516.912 705.331 516.194 705.302C515.491 705.272 514.824 705.258 514.194 705.258C513.535 705.258 512.825 705.272 512.063 705.302C511.316 705.331 510.562 705.397 509.8 705.5C509.038 705.602 508.306 705.749 507.603 705.939C506.899 706.115 506.277 706.356 505.735 706.664C505.193 706.957 504.761 707.323 504.438 707.763C504.116 708.188 503.955 708.7 503.955 709.301V711.806ZM551.24 700.951C553.408 700.951 555.283 701.134 556.865 701.5C558.447 701.852 559.751 702.379 560.776 703.083C561.816 703.786 562.578 704.665 563.062 705.719C563.56 706.759 563.809 707.968 563.809 709.345C563.809 710.194 563.706 710.963 563.501 711.652C563.311 712.326 563.04 712.934 562.688 713.476C562.336 714.003 561.904 714.472 561.392 714.882C560.894 715.292 560.337 715.644 559.722 715.937C560.264 716.859 560.718 717.804 561.084 718.771C561.465 719.738 561.772 720.668 562.007 721.562C562.256 722.455 562.432 723.29 562.534 724.066C562.651 724.828 562.71 725.473 562.71 726H557.085C557.085 725.106 557.012 724.264 556.865 723.473C556.719 722.682 556.514 721.928 556.25 721.21C556.001 720.492 555.701 719.811 555.349 719.167C555.012 718.522 554.653 717.899 554.272 717.299C553.657 717.372 553.02 717.423 552.361 717.453C551.716 717.467 551.064 717.475 550.405 717.475C548.794 717.475 547.205 717.423 545.637 717.321C544.07 717.218 542.598 717.108 541.221 716.991V726H535.947V692.558H541.221V703.896C542.568 702.987 544.084 702.27 545.769 701.742C547.468 701.215 549.292 700.951 551.24 700.951ZM551.108 705.258C550.024 705.258 549.006 705.331 548.054 705.478C547.102 705.624 546.216 705.829 545.396 706.093C544.575 706.342 543.813 706.642 543.11 706.994C542.422 707.331 541.792 707.689 541.221 708.07V713.739C541.543 713.754 541.99 713.791 542.561 713.849C543.132 713.893 543.777 713.952 544.495 714.025C545.227 714.083 546.003 714.142 546.824 714.201C547.659 714.245 548.501 714.267 549.351 714.267C550.449 714.267 551.526 714.208 552.581 714.091C553.635 713.959 554.58 713.725 555.415 713.388C556.25 713.051 556.917 712.589 557.415 712.003C557.927 711.417 558.184 710.663 558.184 709.74C558.184 708.671 557.957 707.836 557.502 707.235C557.048 706.62 556.47 706.173 555.767 705.895C555.063 705.602 554.294 705.426 553.459 705.368C552.639 705.294 551.855 705.258 551.108 705.258ZM603.799 692.206C606.055 692.206 608.062 692.404 609.819 692.799C611.592 693.195 613.086 693.744 614.302 694.447C615.532 695.15 616.47 696 617.114 696.996C617.759 697.978 618.081 699.062 618.081 700.248V703.456C618.081 704.716 617.832 705.734 617.334 706.51C616.851 707.287 616.177 707.909 615.312 708.378C616.03 708.583 616.689 708.847 617.29 709.169C617.905 709.491 618.425 709.887 618.85 710.355C619.29 710.81 619.626 711.344 619.861 711.959C620.11 712.56 620.234 713.256 620.234 714.047V718.354C620.234 719.54 619.802 720.631 618.938 721.627C618.074 722.609 616.895 723.458 615.4 724.176C613.906 724.894 612.163 725.451 610.171 725.846C608.179 726.242 606.055 726.439 603.799 726.439C602.539 726.439 601.25 726.388 599.932 726.286C598.613 726.198 597.332 726.073 596.086 725.912C594.856 725.751 593.699 725.568 592.615 725.363C591.531 725.158 590.601 724.945 589.824 724.726V693.876C590.601 693.656 591.531 693.451 592.615 693.261C593.699 693.056 594.856 692.88 596.086 692.733C597.332 692.572 598.613 692.448 599.932 692.36C601.25 692.257 602.539 692.206 603.799 692.206ZM603.623 711.41C602.832 711.41 602.041 711.417 601.25 711.432C600.459 711.432 599.69 711.454 598.943 711.498C598.21 711.527 597.507 711.579 596.833 711.652C596.16 711.725 595.552 711.82 595.01 711.938V720.287C595.303 720.39 595.676 720.507 596.13 720.639C596.599 720.771 597.185 720.895 597.888 721.012C598.591 721.129 599.434 721.232 600.415 721.32C601.396 721.393 602.554 721.43 603.887 721.43C605.527 721.43 607 721.298 608.303 721.034C609.622 720.771 610.728 720.419 611.621 719.979C612.529 719.54 613.225 719.035 613.708 718.463C614.192 717.877 614.434 717.27 614.434 716.64V714.75C614.434 714.062 614.126 713.498 613.511 713.058C612.896 712.619 612.083 712.282 611.072 712.047C610.061 711.798 608.904 711.63 607.6 711.542C606.311 711.454 604.985 711.41 603.623 711.41ZM595.01 705.961C595.918 706.137 596.951 706.254 598.108 706.312C599.28 706.371 600.605 706.4 602.085 706.4C603.359 706.4 604.626 706.356 605.886 706.269C607.146 706.166 608.281 706.005 609.292 705.785C610.303 705.551 611.123 705.243 611.753 704.862C612.383 704.467 612.705 703.969 612.72 703.368V701.962C612.72 701.332 612.566 700.731 612.258 700.16C611.965 699.574 611.467 699.062 610.764 698.622C610.076 698.183 609.167 697.831 608.04 697.567C606.912 697.304 605.527 697.172 603.887 697.172C602.554 697.172 601.396 697.216 600.415 697.304C599.434 697.377 598.591 697.472 597.888 697.589C597.185 697.707 596.599 697.831 596.13 697.963C595.676 698.095 595.303 698.212 595.01 698.314V705.961ZM632.715 726H627.134V700.951H632.715V726ZM629.946 692.25C631.03 692.25 631.887 692.433 632.517 692.799C633.147 693.151 633.462 693.715 633.462 694.491V695.59C633.462 696.293 633.147 696.798 632.517 697.106C631.887 697.414 631.03 697.567 629.946 697.567C628.906 697.567 628.064 697.414 627.419 697.106C626.79 696.798 626.475 696.293 626.475 695.59V694.491C626.475 693.715 626.79 693.151 627.419 692.799C628.064 692.433 628.906 692.25 629.946 692.25ZM655.039 700.951C656.782 700.951 658.481 701.061 660.137 701.281C661.792 701.486 663.279 701.845 664.597 702.357C665.916 702.855 667 703.537 667.849 704.401C668.699 705.265 669.204 706.342 669.365 707.631L664.268 709.037C664.268 708.275 664.004 707.646 663.477 707.147C662.964 706.635 662.275 706.239 661.411 705.961C660.562 705.668 659.58 705.463 658.467 705.346C657.354 705.229 656.211 705.17 655.039 705.17C653.911 705.17 652.791 705.229 651.677 705.346C650.579 705.448 649.59 705.646 648.711 705.939C647.847 706.217 647.144 706.605 646.602 707.104C646.074 707.602 645.811 708.246 645.811 709.037V711.718H669.365V719.32C669.365 720.185 669.175 720.954 668.794 721.627C668.413 722.287 667.886 722.865 667.212 723.363C666.538 723.847 665.74 724.264 664.817 724.616C663.909 724.953 662.92 725.224 661.851 725.429C660.796 725.634 659.683 725.78 658.511 725.868C657.354 725.956 656.196 726 655.039 726C653.267 726 651.553 725.897 649.897 725.692C648.242 725.473 646.755 725.114 645.437 724.616C644.119 724.103 643.035 723.422 642.185 722.572C641.35 721.708 640.859 720.624 640.713 719.32L645.811 717.914C645.811 718.72 646.074 719.372 646.602 719.87C647.144 720.368 647.847 720.756 648.711 721.034C649.59 721.312 650.579 721.503 651.677 721.605C652.791 721.693 653.911 721.737 655.039 721.737C656.211 721.737 657.354 721.686 658.467 721.583C659.58 721.466 660.562 721.269 661.411 720.99C662.275 720.697 662.964 720.309 663.477 719.826C664.004 719.328 664.268 718.69 664.268 717.914V715.233H640.713V707.631C640.713 706.767 640.903 706.005 641.284 705.346C641.665 704.672 642.185 704.093 642.844 703.61C643.518 703.112 644.309 702.694 645.217 702.357C646.125 702.006 647.107 701.728 648.162 701.522C649.231 701.317 650.344 701.171 651.501 701.083C652.673 700.995 653.853 700.951 655.039 700.951ZM681.67 700.863C681.538 701.903 681.421 702.943 681.318 703.983C681.23 705.023 681.187 706.107 681.187 707.235C681.187 708.583 681.245 709.916 681.362 711.234C681.479 712.553 681.729 713.82 682.109 715.036C682.505 716.237 683.069 717.379 683.801 718.463C684.548 719.547 685.552 720.536 686.812 721.43C687.529 720.976 688.101 720.426 688.525 719.782C688.965 719.123 689.309 718.419 689.558 717.672C689.807 716.925 689.983 716.164 690.085 715.387C690.203 714.611 690.298 713.856 690.371 713.124V707.763H694.766V713.124C694.824 713.856 694.912 714.611 695.029 715.387C695.146 716.164 695.33 716.925 695.579 717.672C695.828 718.419 696.165 719.123 696.589 719.782C697.029 720.426 697.593 720.976 698.281 721.43C699.541 720.536 700.544 719.547 701.292 718.463C702.039 717.379 702.61 716.237 703.005 715.036C703.401 713.82 703.657 712.553 703.774 711.234C703.892 709.916 703.95 708.583 703.95 707.235C703.95 706.107 703.899 705.023 703.796 703.983C703.708 702.943 703.584 701.903 703.423 700.863C704.756 700.937 705.935 701.032 706.96 701.149C707.986 701.266 708.857 701.383 709.575 701.5C710.41 701.632 711.143 701.771 711.772 701.918V707.016C711.392 706.811 711.025 706.657 710.674 706.554C710.337 706.437 710.037 706.349 709.773 706.291C709.465 706.232 709.18 706.195 708.916 706.181C708.916 708.305 708.821 710.209 708.63 711.894C708.44 713.563 708.154 715.065 707.773 716.398C707.393 717.731 706.909 718.917 706.323 719.958C705.752 720.998 705.071 721.942 704.28 722.792C703.489 723.627 702.595 724.396 701.599 725.099C700.603 725.802 699.497 726.483 698.281 727.143C696.89 726.352 695.74 725.465 694.832 724.484C693.923 723.502 693.169 722.382 692.568 721.122C691.997 722.382 691.25 723.502 690.327 724.484C689.419 725.465 688.247 726.352 686.812 727.143C685.61 726.483 684.512 725.802 683.516 725.099C682.534 724.396 681.648 723.627 680.857 722.792C680.081 721.942 679.407 720.998 678.835 719.958C678.264 718.917 677.788 717.731 677.407 716.398C677.026 715.065 676.741 713.563 676.55 711.894C676.36 710.209 676.265 708.305 676.265 706.181C675.986 706.195 675.693 706.232 675.386 706.291C675.107 706.349 674.792 706.437 674.441 706.554C674.089 706.657 673.716 706.811 673.32 707.016V701.918C673.95 701.771 674.69 701.632 675.54 701.5C676.257 701.383 677.129 701.266 678.154 701.149C679.194 701.032 680.366 700.937 681.67 700.863ZM742.314 717.035C741.948 716.713 741.494 716.398 740.952 716.09C740.41 715.783 739.744 715.512 738.953 715.277C738.162 715.028 737.217 714.831 736.118 714.684C735.034 714.523 733.76 714.442 732.295 714.442C730.991 714.442 729.753 714.472 728.582 714.53C727.424 714.574 726.406 714.721 725.527 714.97C724.648 715.204 723.953 715.585 723.44 716.112C722.927 716.64 722.671 717.372 722.671 718.31V721.122C723.96 721.327 725.381 721.496 726.934 721.627C728.486 721.759 730.215 721.825 732.119 721.825C733.643 721.825 735.261 721.774 736.975 721.671C738.704 721.554 740.483 721.327 742.314 720.99V717.035ZM732.427 700.951C733.159 700.951 734.045 700.988 735.085 701.061C736.125 701.134 737.209 701.266 738.337 701.457C739.465 701.632 740.579 701.881 741.677 702.204C742.791 702.511 743.787 702.921 744.666 703.434C745.559 703.932 746.277 704.533 746.819 705.236C747.361 705.939 747.632 706.767 747.632 707.719V724.726C746.401 724.975 745.01 725.187 743.457 725.363C742.124 725.524 740.535 725.67 738.689 725.802C736.843 725.934 734.785 726 732.515 726C730.259 726 727.856 725.905 725.308 725.714C722.773 725.524 720.122 725.194 717.354 724.726V716.815C717.354 715.966 717.551 715.226 717.947 714.596C718.357 713.952 718.914 713.402 719.617 712.948C720.32 712.494 721.147 712.121 722.1 711.828C723.052 711.535 724.077 711.3 725.176 711.125C726.274 710.949 727.417 710.832 728.604 710.773C729.79 710.7 730.977 710.663 732.163 710.663C733.965 710.663 735.496 710.78 736.755 711.015C738.03 711.234 739.084 711.476 739.919 711.74C740.886 712.062 741.685 712.421 742.314 712.816V709.257C742.314 708.656 742.168 708.144 741.875 707.719C741.582 707.279 741.187 706.913 740.688 706.62C740.19 706.312 739.619 706.071 738.975 705.895C738.33 705.705 737.656 705.558 736.953 705.456C736.25 705.353 735.532 705.287 734.8 705.258C734.082 705.229 733.408 705.214 732.778 705.214C732.119 705.214 731.416 705.236 730.669 705.28C729.922 705.309 729.175 705.375 728.428 705.478C727.695 705.58 726.985 705.727 726.296 705.917C725.623 706.093 725.022 706.334 724.495 706.642C723.967 706.95 723.542 707.323 723.22 707.763C722.913 708.188 722.759 708.7 722.759 709.301L717.31 707.895C717.31 706.913 717.551 706.063 718.035 705.346C718.518 704.613 719.155 703.991 719.946 703.478C720.752 702.965 721.675 702.548 722.715 702.226C723.755 701.889 724.832 701.632 725.945 701.457C727.073 701.266 728.193 701.134 729.307 701.061C730.42 700.988 731.46 700.951 732.427 700.951ZM768.462 700.951C770.205 700.951 771.904 701.061 773.56 701.281C775.215 701.486 776.702 701.845 778.02 702.357C779.338 702.855 780.422 703.537 781.272 704.401C782.122 705.265 782.627 706.342 782.788 707.631L777.69 709.037C777.69 708.275 777.427 707.646 776.899 707.147C776.387 706.635 775.698 706.239 774.834 705.961C773.984 705.668 773.003 705.463 771.89 705.346C770.776 705.229 769.634 705.17 768.462 705.17C767.334 705.17 766.213 705.229 765.1 705.346C764.001 705.448 763.013 705.646 762.134 705.939C761.27 706.217 760.566 706.605 760.024 707.104C759.497 707.602 759.233 708.246 759.233 709.037V711.718H782.788V719.32C782.788 720.185 782.598 720.954 782.217 721.627C781.836 722.287 781.309 722.865 780.635 723.363C779.961 723.847 779.163 724.264 778.24 724.616C777.332 724.953 776.343 725.224 775.273 725.429C774.219 725.634 773.105 725.78 771.934 725.868C770.776 725.956 769.619 726 768.462 726C766.689 726 764.976 725.897 763.32 725.692C761.665 725.473 760.178 725.114 758.86 724.616C757.542 724.103 756.458 723.422 755.608 722.572C754.773 721.708 754.282 720.624 754.136 719.32L759.233 717.914C759.233 718.72 759.497 719.372 760.024 719.87C760.566 720.368 761.27 720.756 762.134 721.034C763.013 721.312 764.001 721.503 765.1 721.605C766.213 721.693 767.334 721.737 768.462 721.737C769.634 721.737 770.776 721.686 771.89 721.583C773.003 721.466 773.984 721.269 774.834 720.99C775.698 720.697 776.387 720.309 776.899 719.826C777.427 719.328 777.69 718.69 777.69 717.914V715.233H754.136V707.631C754.136 706.767 754.326 706.005 754.707 705.346C755.088 704.672 755.608 704.093 756.267 703.61C756.941 703.112 757.732 702.694 758.64 702.357C759.548 702.006 760.53 701.728 761.584 701.522C762.654 701.317 763.767 701.171 764.924 701.083C766.096 700.995 767.275 700.951 768.462 700.951Z" fill="#C09767"/>
</g>
</svg>
